<svg width="350.79998779296875px" height="116.08001708984375px" xmlns="http://www.w3.org/2000/svg" viewBox="74.60000610351562 16.959991455078125 350.79998779296875 116.08001708984375" style="background: rgba(255, 255, 255, 0);" preserveAspectRatio="xMidYMid"><defs><linearGradient id="editing-gradient-gradient" x1="0" x2="1" y1="0.5" y2="0.5" gradientUnits="objectBoundingBox"><stop offset="0" stop-color="#f0f"></stop><stop offset="1" stop-color="#00ffff"></stop></linearGradient></defs><g><g transform="translate(129.32999753952026, 96.88999938964844)"><path d="M15.81 0.77L15.81 0.77Q11.14 0.77 8.03-0.61L8.03-0.61L8.03-0.61Q4.93-1.98 3.46-4.22L3.46-4.22L3.46-4.22Q1.98-6.46 1.98-9.09L1.98-9.09L1.98-9.09Q1.98-9.86 2.02-10.14L2.02-10.14L2.02-10.14Q2.05-10.43 2.05-10.50L2.05-10.50L7.62-10.50L7.62-9.86L7.62-9.86Q7.62-6.85 9.98-5.34L9.98-5.34L9.98-5.34Q12.35-3.84 16.13-3.84L16.13-3.84L16.13-3.84Q19.39-3.84 21.54-5.15L21.54-5.15L21.54-5.15Q23.68-6.46 23.68-8.83L23.68-8.83L23.68-8.83Q23.68-10.69 22.46-11.87L22.46-11.87L22.46-11.87Q21.25-13.06 19.46-13.73L19.46-13.73L19.46-13.73Q17.66-14.40 14.59-15.17L14.59-15.17L14.59-15.17Q10.88-16.13 8.54-17.09L8.54-17.09L8.54-17.09Q6.21-18.05 4.58-19.94L4.58-19.94L4.58-19.94Q2.94-21.82 2.94-24.83L2.94-24.83L2.94-24.83Q2.94-29.25 6.56-31.84L6.56-31.84L6.56-31.84Q10.18-34.43 16.32-34.43L16.32-34.43L16.32-34.43Q20.16-34.43 22.98-33.18L22.98-33.18L22.98-33.18Q25.79-31.94 27.23-29.86L27.23-29.86L27.23-29.86Q28.67-27.78 28.67-25.22L28.67-25.22L28.61-24L23.10-24L23.10-24.58L23.10-24.58Q23.10-26.82 21.34-28.29L21.34-28.29L21.34-28.29Q19.58-29.76 15.68-29.76L15.68-29.76L15.68-29.76Q11.84-29.76 10.30-28.38L10.30-28.38L10.30-28.38Q8.77-27.01 8.77-25.22L8.77-25.22L8.77-25.22Q8.77-23.74 9.86-22.78L9.86-22.78L9.86-22.78Q10.94-21.82 12.54-21.25L12.54-21.25L12.54-21.25Q14.14-20.67 17.02-19.97L17.02-19.97L17.02-19.97Q20.99-18.94 23.49-17.95L23.49-17.95L23.49-17.95Q25.98-16.96 27.74-14.94L27.74-14.94L27.74-14.94Q29.50-12.93 29.50-9.60L29.50-9.60L29.50-9.60Q29.50-4.42 25.76-1.82L25.76-1.82L25.76-1.82Q22.02 0.77 15.81 0.77L15.81 0.77ZM49.79 0.77L49.79 0.77Q42.05 0.77 38.14-3.55L38.14-3.55L38.14-3.55Q34.24-7.87 34.24-16.83L34.24-16.83L34.24-16.83Q34.24-25.79 38.14-30.11L38.14-30.11L38.14-30.11Q42.05-34.43 49.79-34.43L49.79-34.43L49.79-34.43Q57.54-34.43 61.44-30.11L61.44-30.11L61.44-30.11Q65.34-25.79 65.34-16.83L65.34-16.83L65.34-16.83Q65.34-7.87 61.44-3.55L61.44-3.55L61.44-3.55Q57.54 0.77 49.79 0.77L49.79 0.77ZM49.79-3.90L49.79-3.90Q54.91-3.90 57.22-6.88L57.22-6.88L57.22-6.88Q59.52-9.86 59.52-16.58L59.52-16.58L59.52-17.09L59.52-17.09Q59.52-23.81 57.22-26.78L57.22-26.78L57.22-26.78Q54.91-29.76 49.79-29.76L49.79-29.76L49.79-29.76Q44.67-29.76 42.37-26.78L42.37-26.78L42.37-26.78Q40.06-23.81 40.06-17.09L40.06-17.09L40.06-16.58L40.06-16.58Q40.06-9.86 42.37-6.88L42.37-6.88L42.37-6.88Q44.67-3.90 49.79-3.90L49.79-3.90ZM84.67 0.77L84.67 0.77Q76.99 0.77 73.41-3.49L73.41-3.49L73.41-3.49Q69.82-7.74 69.82-16.83L69.82-16.83L69.82-16.83Q69.82-25.86 73.44-30.14L73.44-30.14L73.44-30.14Q77.06-34.43 84.67-34.43L84.67-34.43L84.67-34.43Q91.58-34.43 94.78-31.10L94.78-31.10L94.78-31.10Q97.98-27.78 97.98-21.18L97.98-21.18L92.22-21.18L92.22-21.18Q92.22-25.73 90.59-27.74L90.59-27.74L90.59-27.74Q88.96-29.76 84.67-29.76L84.67-29.76L84.67-29.76Q80-29.76 77.82-26.72L77.82-26.72L77.82-26.72Q75.65-23.68 75.65-16.83L75.65-16.83L75.65-16.58L75.65-16.58Q75.65-9.79 77.76-6.85L77.76-6.85L77.76-6.85Q79.87-3.90 84.67-3.90L84.67-3.90L84.67-3.90Q88.90-3.90 90.72-6.05L90.72-6.05L90.72-6.05Q92.54-8.19 92.54-12.48L92.54-12.48L97.98-12.48L97.98-12.48Q97.98-6.72 94.72-2.98L94.72-2.98L94.72-2.98Q91.46 0.77 84.67 0.77L84.67 0.77ZM103.87 0L103.87-33.66L108.16-33.66L108.80-28.61L109.18-28.61L109.18-28.61Q110.14-31.10 112.06-32.77L112.06-32.77L112.06-32.77Q113.98-34.43 117.12-34.43L117.12-34.43L117.12-34.43Q118.21-34.43 119.07-34.21L119.07-34.21L119.07-34.21Q119.94-33.98 120.13-33.92L120.13-33.92L120.13-28.48L117.76-28.48L117.76-28.48Q114.18-28.48 111.84-26.40L111.84-26.40L111.84-26.40Q109.50-24.32 109.50-19.90L109.50-19.90L109.50 0L103.87 0ZM134.34 0.77L134.34 0.77Q129.98 0.77 126.59-1.28L126.59-1.28L126.59-1.28Q123.20-3.33 123.20-8.70L123.20-8.70L123.20-8.70Q123.20-15.17 128.96-17.57L128.96-17.57L128.96-17.57Q134.72-19.97 145.60-19.97L145.60-19.97L145.60-23.68L145.60-23.68Q145.60-26.62 143.94-28.19L143.94-28.19L143.94-28.19Q142.27-29.76 137.92-29.76L137.92-29.76L137.92-29.76Q133.82-29.76 132.06-28.22L132.06-28.22L132.06-28.22Q130.30-26.69 130.30-24.45L130.30-24.45L130.30-23.68L124.86-23.68L124.86-23.68Q124.80-24.06 124.80-25.09L124.80-25.09L124.80-25.09Q124.80-29.57 128.51-32L128.51-32L128.51-32Q132.22-34.43 138.43-34.43L138.43-34.43L138.43-34.43Q144.70-34.43 147.97-31.81L147.97-31.81L147.97-31.81Q151.23-29.18 151.23-24.38L151.23-24.38L151.23-6.14L151.23-6.14Q151.23-4.99 151.87-4.45L151.87-4.45L151.87-4.45Q152.51-3.90 153.47-3.90L153.47-3.90L156.03-3.90L156.03-0.26L156.03-0.26Q154.37 0.51 151.68 0.51L151.68 0.51L151.68 0.51Q149.50 0.51 148.03-0.80L148.03-0.80L148.03-0.80Q146.56-2.11 146.05-4.29L146.05-4.29L145.60-4.29L145.60-4.29Q143.87-1.92 140.90-0.58L140.90-0.58L140.90-0.58Q137.92 0.77 134.34 0.77L134.34 0.77ZM135.81-3.90L135.81-3.90Q138.30-3.90 140.54-4.93L140.54-4.93L140.54-4.93Q142.78-5.95 144.19-7.97L144.19-7.97L144.19-7.97Q145.60-9.98 145.60-12.86L145.60-12.86L145.60-15.30L145.60-15.30Q137.34-15.30 133.22-13.98L133.22-13.98L133.22-13.98Q129.09-12.67 129.09-9.02L129.09-9.02L129.09-9.02Q129.09-6.27 130.78-5.09L130.78-5.09L130.78-5.09Q132.48-3.90 135.81-3.90L135.81-3.90ZM168.38 0.70L168.38 0.70Q164.93 0.70 163.33-1.34L163.33-1.34L163.33-1.34Q161.73-3.39 161.73-6.40L161.73-6.40L161.73-28.99L157.63-28.99L157.63-33.66L161.79-33.66L163.01-43.01L167.36-43.01L167.36-33.66L173.06-33.66L173.06-28.99L167.36-28.99L167.36-6.91L167.36-6.91Q167.36-3.90 170.18-3.90L170.18-3.90L173.06-3.90L173.06-0.19L173.06-0.19Q172.22 0.19 170.88 0.45L170.88 0.45L170.88 0.45Q169.54 0.70 168.38 0.70L168.38 0.70ZM192.83 0.77L192.83 0.77Q184.70 0.77 180.74-3.52L180.74-3.52L180.74-3.52Q176.77-7.81 176.77-16.83L176.77-16.83L176.77-16.83Q176.77-25.86 180.74-30.14L180.74-30.14L180.74-30.14Q184.70-34.43 192.83-34.43L192.83-34.43L192.83-34.43Q200.13-34.43 203.74-30.56L203.74-30.56L203.74-30.56Q207.36-26.69 207.36-18.11L207.36-18.11L207.36-15.30L182.59-15.30L182.59-15.30Q182.91-9.47 185.38-6.69L185.38-6.69L185.38-6.69Q187.84-3.90 192.83-3.90L192.83-3.90L192.83-3.90Q196.86-3.90 199.36-5.76L199.36-5.76L199.36-5.76Q201.86-7.62 201.86-11.46L201.86-11.46L207.36-11.46L207.36-11.46Q207.36-5.57 203.30-2.40L203.30-2.40L203.30-2.40Q199.23 0.77 192.83 0.77L192.83 0.77ZM182.72-19.97L201.47-19.97L201.47-19.97Q201.47-29.76 192.83-29.76L192.83-29.76L192.83-29.76Q188.03-29.76 185.63-27.46L185.63-27.46L185.63-27.46Q183.23-25.15 182.72-19.97L182.72-19.97ZM225.66 0.77L225.66 0.77Q220.99 0.77 217.89-0.61L217.89-0.61L217.89-0.61Q214.78-1.98 213.31-4.22L213.31-4.22L213.31-4.22Q211.84-6.46 211.84-9.09L211.84-9.09L211.84-9.09Q211.84-9.86 211.87-10.14L211.87-10.14L211.87-10.14Q211.90-10.43 211.90-10.50L211.90-10.50L217.47-10.50L217.47-9.86L217.47-9.86Q217.47-6.85 219.84-5.34L219.84-5.34L219.84-5.34Q222.21-3.84 225.98-3.84L225.98-3.84L225.98-3.84Q229.25-3.84 231.39-5.15L231.39-5.15L231.39-5.15Q233.54-6.46 233.54-8.83L233.54-8.83L233.54-8.83Q233.54-10.69 232.32-11.87L232.32-11.87L232.32-11.87Q231.10-13.06 229.31-13.73L229.31-13.73L229.31-13.73Q227.52-14.40 224.45-15.17L224.45-15.17L224.45-15.17Q220.74-16.13 218.40-17.09L218.40-17.09L218.40-17.09Q216.06-18.05 214.43-19.94L214.43-19.94L214.43-19.94Q212.80-21.82 212.80-24.83L212.80-24.83L212.80-24.83Q212.80-29.25 216.42-31.84L216.42-31.84L216.42-31.84Q220.03-34.43 226.18-34.43L226.18-34.43L226.18-34.43Q230.02-34.43 232.83-33.18L232.83-33.18L232.83-33.18Q235.65-31.94 237.09-29.86L237.09-29.86L237.09-29.86Q238.53-27.78 238.53-25.22L238.53-25.22L238.46-24L232.96-24L232.96-24.58L232.96-24.58Q232.96-26.82 231.20-28.29L231.20-28.29L231.20-28.29Q229.44-29.76 225.54-29.76L225.54-29.76L225.54-29.76Q221.70-29.76 220.16-28.38L220.16-28.38L220.16-28.38Q218.62-27.01 218.62-25.22L218.62-25.22L218.62-25.22Q218.62-23.74 219.71-22.78L219.71-22.78L219.71-22.78Q220.80-21.82 222.40-21.25L222.40-21.25L222.40-21.25Q224.00-20.67 226.88-19.97L226.88-19.97L226.88-19.97Q230.85-18.94 233.34-17.95L233.34-17.95L233.34-17.95Q235.84-16.96 237.60-14.94L237.60-14.94L237.60-14.94Q239.36-12.93 239.36-9.60L239.36-9.60L239.36-9.60Q239.36-4.42 235.62-1.82L235.62-1.82L235.62-1.82Q231.87 0.77 225.66 0.77L225.66 0.77Z" fill="url(#editing-gradient-gradient)"></path></g></g><style>text {
  font-size: 64px;
  font-family: Arial Black;
  dominant-baseline: central;
  text-anchor: middle;
}</style></svg>